<svg width="22" height="19" viewBox="0 0 22 19" fill="none" xmlns="http://www.w3.org/2000/svg">
<g clip-path="url(#clip0_3001_2018)">
<path d="M6.18124 6.78574L6.18517 5.24687C6.18517 4.44589 6.26367 4.01577 7.44505 4.01577H9.02481V0.939941H6.4972C3.46327 0.939941 2.39375 2.43102 2.39375 4.93909V6.78382H0.5V9.85965H2.39375V18.7794H6.18124V9.85965H8.70886L9.04444 6.78382H6.18124V6.78574Z" fill="#F1EFE7"/>
<path d="M17.0803 6.61186C16.1167 6.61186 15.057 6.76097 14.2387 7.05728V1.2478L10.4512 1.86144V18.4698C12.5117 18.7794 13.6087 18.9381 15.475 18.9381C20.646 18.9381 21.4997 16.8181 21.4997 13.9124V10.915C21.4997 8.2597 20.8697 6.60804 17.0803 6.60804V6.61186ZM17.7122 13.9411C17.7122 15.0938 17.459 15.9215 15.6026 15.9215C15.0884 15.9215 14.7803 15.9215 14.2387 15.8699V10.1885C14.8038 9.93812 15.3592 9.69151 16.1324 9.69151C17.4217 9.69151 17.7122 10.3759 17.7122 11.2266V13.9411Z" fill="#F1EFE7"/>
</g>
<defs>
<clipPath id="clip0_3001_2018">
<rect width="21" height="18" fill="white" transform="translate(0.5 0.939941)"/>
</clipPath>
</defs>
</svg>
