<svg width="20" height="20" viewBox="0 0 20 20" fill="none" xmlns="http://www.w3.org/2000/svg">
<g clip-path="url(#clip0_3001_2021)">
<path d="M9.99967 7.27319C8.24745 7.27319 6.83301 8.68764 6.83301 10.4399C6.83301 12.1921 8.24745 13.6065 9.99967 13.6065C11.7519 13.6065 13.1663 12.1921 13.1663 10.4399C13.1663 8.68764 11.7519 7.27319 9.99967 7.27319Z" fill="#F1EFE7"/>
<path d="M13.6944 0.939941H6.30556C3.09667 0.939941 0.5 3.53661 0.5 6.7455V14.1344C0.5 17.3433 3.09667 19.9399 6.30556 19.9399H13.6944C16.9033 19.9399 19.5 17.3433 19.5 14.1344V6.7455C19.5 3.53661 16.9033 0.939941 13.6944 0.939941ZM10 15.1899C7.37167 15.1899 5.25 13.0683 5.25 10.4399C5.25 7.81161 7.37167 5.68994 10 5.68994C12.6283 5.68994 14.75 7.81161 14.75 10.4399C14.75 13.0683 12.6283 15.1899 10 15.1899ZM14.9611 6.53439C14.3806 6.53439 13.9056 6.05939 13.9056 5.47883C13.9056 4.89828 14.3806 4.42327 14.9611 4.42327C15.5417 4.42327 16.0167 4.89828 16.0167 5.47883C16.0167 6.05939 15.5417 6.53439 14.9611 6.53439Z" fill="#F1EFE7"/>
</g>
<defs>
<clipPath id="clip0_3001_2021">
<rect width="19" height="19" fill="white" transform="translate(0.5 0.939941)"/>
</clipPath>
</defs>
</svg>
