<svg width="120" height="60" viewBox="0 0 120 60" fill="none" xmlns="http://www.w3.org/2000/svg">
<g clip-path="url(#clip0_196_13)">
<path d="M42.2063 2.11983C38.4653 4.04718 35.5875 7.70913 18.9928 31.3191C8.6331 46.1596 0.0959232 58.591 0 58.9765C0 59.4583 12.8537 59.7474 28.5852 59.7474H57.0744L71.4628 49.147C79.4244 43.365 86.0432 38.5467 86.331 38.5467C86.6187 38.5467 90.1678 43.365 94.2925 49.147L101.775 59.7474H110.887H120L118.178 57.0492C86.9066 12.6239 79.2326 2.31258 76.9305 1.25253C75.4915 0.577962 70.6954 0.0961217 66.187 0.0961217L58.0335 -0.000244141L60.5275 2.2162C61.8705 3.37261 65.9952 8.6728 69.5443 13.8766C75.7794 22.9351 75.9712 23.5134 74.2446 24.7662C73.2853 25.537 66.7626 30.259 59.7601 35.2702L47.1942 44.425L39.904 44.136L32.7099 43.8468L40.3838 33.2464C44.7003 27.3681 48.4413 22.6461 48.9208 22.6461C49.3046 22.6461 51.6068 25.0552 53.9088 28.1389L58.1295 33.5355L65.4196 28.2354L72.8058 22.9351L67.3382 15.5149C59.6643 5.01085 56.6907 2.02347 52.7579 0.963429C47.9616 -0.385711 47.0023 -0.289345 42.2063 2.11983Z" fill="white"/>
<path d="M78.6583 47.2191C75.301 49.821 71.7997 51.652 71.7039 52.0375C71.6079 52.423 73.1907 54.9285 74.6295 56.6631L77.2194 59.8432L88.0587 59.5542L98.8021 59.265L93.0468 51.0738C89.7853 46.5445 86.7159 42.7863 86.0443 42.6898C85.3729 42.5935 82.1115 44.6172 78.6583 47.2191Z" fill="white"/>
</g>
<defs>
<clipPath id="clip0_196_13">
<rect width="120" height="60" fill="white"/>
</clipPath>
</defs>
</svg>
