<?xml version="1.0" encoding="utf-8"?>
<!-- Generator: Adobe Illustrator 26.0.2, SVG Export Plug-In . SVG Version: 6.00 Build 0)  -->
<svg version="1.1" id="Layer_1" xmlns="http://www.w3.org/2000/svg" xmlns:xlink="http://www.w3.org/1999/xlink" x="0px" y="0px"
	 viewBox="0 0 3000 3000" style="enable-background:new 0 0 3000 3000;" xml:space="preserve">
<style type="text/css">
	.st0{fill:#FFFFFF;}
</style>
<g>
	<path class="st0" d="M627.86,2463.59c-46.47,0-92.03-8.15-135.75-24.32c-53.16-19.66-100.61-50.13-141.04-90.55
		c-66.56-66.56-106.38-154.97-112.11-248.93c-5.73-93.96,23.05-186.55,81.04-260.71l912.17-1166.52
		c24.97-31.93,54.67-59.49,88.29-81.93c32.84-21.91,68.76-38.52,106.78-49.35c38.02-10.83,77.31-15.65,116.76-14.34
		c40.4,1.35,80.17,9.12,118.21,23.09c73.91,27.15,136.63,75.73,181.41,140.5s68.06,140.61,67.36,219.34l-1.34,148.39
		c28.65,1.69,57.62,6.71,86.93,15.05c75.7,21.56,146.12,64.81,209.31,128.53c50.31,50.74,94.99,113.25,132.8,185.81
		c100.75,193.34,121.44,418.36,56.77,617.39c-13.78,42.41-31.39,84.01-52.33,123.64c-43.35,82.05-98.38,150.7-163.55,204.05
		c-53.02,43.41-112.53,76.59-176.89,98.63c-102.82,35.21-185.34,30.74-202.06,29.36c-50.42-3.67-90.21-46.26-89.74-97.43
		l9.33-1036.62c-43.03,41.09-86.51,95.62-134.83,158.88c-13.59,17.8-27.64,36.2-41.39,53.6c-60.08,76.05-120.83,153.81-179.58,229
		c-35.81,45.84-72.84,93.23-109.38,139.81l-318.93,406.53c-35.44,44.86-79.01,80.66-129.52,106.38
		c-48.49,24.7-100.75,38.84-155.32,42.04C643.45,2463.36,635.64,2463.59,627.86,2463.59z M1531.03,713.65
		c-58.02,0-114.17,26.3-151.54,74.1L467.32,1954.26c-61.6,78.78-54.73,191.51,15.98,262.22c41.99,41.99,97.77,63.21,157.05,59.74
		c59.23-3.46,112.11-31,148.92-77.52l318.65-406.17c36.43-46.43,73.4-93.75,109.16-139.52c58.9-75.39,119.81-153.34,180.2-229.79
		c12.8-16.2,25.77-33.19,39.51-51.18c59.77-78.26,127.51-166.96,212.32-229.95c23.98-17.81,48.4-32.82,73.18-45.01l1.7-188.91
		c0.73-81.22-50.01-154.61-126.25-182.62C1575.87,717.53,1553.31,713.65,1531.03,713.65z M1907.96,1245.83l-9.19,1020.65
		c15.6-3.36,32.7-8.06,50.67-14.63c96.28-35.17,173.11-106.01,228.35-210.54c15.94-30.17,29.34-61.82,39.82-94.07
		c49.26-151.6,32.95-324.06-44.75-473.18c-35.68-68.47-112.68-188.21-227.5-220.91C1932.52,1249.51,1920.07,1247.08,1907.96,1245.83
		z"/>
</g>
<g>
	<path class="st0" d="M2135.46,757.27c-1.04,0-2.08-0.01-3.13-0.04c-63.57-1.7-113.9-54.8-112.2-118.37
		c0.82-30.79,13.59-59.42,35.95-80.62c22.36-21.19,51.64-32.41,82.42-31.59c30.79,0.82,59.42,13.59,80.62,35.95
		s32.41,51.63,31.59,82.42C2249.03,707.54,2197.63,757.27,2135.46,757.27z M2135.35,552.61c-22.95,0-44.67,8.65-61.39,24.5
		c-17.32,16.41-27.21,38.59-27.84,62.44c-1.32,49.24,37.67,90.37,86.91,91.68c23.85,0.63,46.52-8.05,63.84-24.47
		c17.32-16.41,27.21-38.59,27.84-62.44c0.64-23.85-8.05-46.52-24.47-63.84c-16.41-17.32-38.59-27.2-62.44-27.84
		C2136.99,552.62,2136.17,552.61,2135.35,552.61z"/>
</g>
<g>
	<path class="st0" d="M2097.33,591.37c8.71-1.38,21.46-2.34,34.77-2.34c17.98,0,30.26,2.63,38.71,8.75
		c6.91,4.97,10.82,12.49,10.82,21.81c0,13.98-10.99,23.52-22.83,27.13v0.46c9.1,2.98,14.39,10.46,17.51,21.01
		c3.99,13.59,7.41,26.04,9.91,30.27h-23.54c-1.95-3.14-4.95-12.11-8.46-25.62c-3.6-14.15-9.55-18.74-22.58-19h-11.54v44.62h-22.75
		V591.37z M2120.08,639.29h13.57c15.55,0,25.13-7.09,25.13-17.88c0-11.81-9.62-17.37-24.45-17.41c-7.27,0-11.91,0.49-14.25,1.01
		V639.29z"/>
</g>
</svg>
