<svg width="74" height="60" viewBox="0 0 74 60" fill="none" xmlns="http://www.w3.org/2000/svg">
<path d="M30.5796 2.35111C27.654 6.52919 25.6178 9.84544 24.4687 12.2999C23.3196 14.7543 22.7451 17.0777 22.7451 19.2701C22.7451 22.4024 23.8413 25.3809 26.0336 28.2008L29.3247 32.588C32.3511 36.6602 33.8682 40.5787 33.8682 44.3385C33.8682 47.2642 33.1626 49.9 31.7514 52.2486C30.3402 54.5972 28.3822 56.4796 25.8774 57.8883C23.37 59.2995 20.6006 60.0025 17.5742 60.0025C12.4561 60.0025 8.25287 58.3066 4.96181 54.9122C1.6758 51.5179 0.0302734 47.1029 0.0302734 41.6724C0.0302734 29.6623 9.32385 15.7724 27.916 0L30.5796 2.35111ZM70.6846 2.35111C67.759 6.52919 65.7228 9.84544 64.5737 12.2999C63.4221 14.7543 62.8501 17.0777 62.8501 19.2701C62.8501 22.4024 63.9463 25.3809 66.1386 28.2008L69.4272 32.588C72.4561 36.6602 73.9706 40.5787 73.9706 44.3385C73.9706 47.2642 73.265 49.9 71.8564 52.2486C70.4452 54.5997 68.4872 56.4796 65.9799 57.8883C63.4725 59.2995 60.7056 60.0025 57.6766 60.0025C52.5586 60.0025 48.3553 58.3066 45.0668 54.9122C41.7783 51.5204 40.1327 47.1054 40.1327 41.6749C40.1327 29.6648 49.4263 15.7749 68.0185 0.00251995L70.6821 2.35363L70.6846 2.35111Z" fill="#2D542E"/>
</svg>
