<svg width="82" height="72" viewBox="0 0 82 72" fill="none" xmlns="http://www.w3.org/2000/svg">
<path d="M14.6769 71.9733C12.9561 71.9733 11.2691 71.6715 9.65022 71.0727C7.68177 70.3447 5.92477 69.2165 4.4277 67.7198C1.96307 65.2551 0.488587 61.9814 0.276413 58.5022C0.064239 55.023 1.12992 51.5945 3.27722 48.8485L37.0537 5.6538C37.9783 4.47148 39.078 3.45097 40.3229 2.62004C41.5389 1.80874 42.869 1.1937 44.2768 0.792678C45.6847 0.391658 47.1395 0.213179 48.6003 0.261686C50.0963 0.311675 51.5689 0.599389 52.9775 1.11668C55.7142 2.12201 58.0367 3.92086 59.6948 6.31921C61.353 8.71755 62.215 11.5258 62.1891 14.4411L62.1395 19.9358C63.2003 19.9983 64.273 20.1842 65.3584 20.493C68.1614 21.2914 70.769 22.8929 73.1088 25.2523C74.9717 27.1312 76.6262 29.4458 78.0262 32.1326C81.7569 39.2917 82.523 47.6239 80.1283 54.9938C79.6181 56.5641 78.966 58.1045 78.1907 59.572C76.5855 62.6102 74.5478 65.1522 72.1346 67.1277C70.1713 68.7351 67.9678 69.9637 65.5846 70.7798C61.7773 72.0836 58.7217 71.9181 58.1026 71.867C56.2356 71.7311 54.7622 70.154 54.7796 68.2593L55.1251 29.8746C53.5318 31.3961 51.9218 33.4153 50.1325 35.7577C49.6293 36.4168 49.1091 37.0982 48.5999 37.7425C46.3752 40.5585 44.1258 43.4379 41.9503 46.222C40.6243 47.9194 39.2532 49.6742 37.9001 51.399L26.0906 66.4523C24.7783 68.1134 23.1649 69.439 21.2946 70.3914C19.4991 71.306 17.564 71.8296 15.5433 71.9481C15.2541 71.9647 14.9649 71.9733 14.6769 71.9733ZM48.12 7.17531C45.9716 7.17531 43.8925 8.14916 42.5087 9.91913L8.73228 53.1134C6.45131 56.0306 6.7057 60.2048 9.324 62.8231C10.8788 64.3779 12.9443 65.1637 15.1393 65.0352C17.3326 64.9071 19.2906 63.8873 20.6537 62.1647L32.4528 47.1248C33.8018 45.4056 35.1707 43.6534 36.4949 41.9586C38.6759 39.167 40.9313 36.2806 43.1675 33.4497C43.6414 32.8499 44.1217 32.2208 44.6305 31.5546C46.8437 28.6567 49.352 25.3723 52.4924 23.0399C53.3803 22.3804 54.2846 21.8246 55.2021 21.3732L55.2651 14.3781C55.2921 11.3707 53.4133 8.65312 50.5902 7.61595C49.7804 7.31898 48.945 7.17531 48.12 7.17531ZM62.0772 26.8812L61.737 64.6745C62.3146 64.5501 62.9478 64.3761 63.6132 64.1328C67.1783 62.8305 70.0232 60.2074 72.0687 56.3368C72.6589 55.2196 73.1551 54.0477 73.5432 52.8535C75.3672 47.24 74.7633 40.854 71.8861 35.3323C70.565 32.7969 67.7138 28.3631 63.4621 27.1523C62.9867 27.0175 62.5257 26.9275 62.0772 26.8812Z" fill="white"/>
</svg>
