<svg width="2349" height="1938" viewBox="0 0 2349 1938" fill="none" xmlns="http://www.w3.org/2000/svg">
<path d="M2345.23 1164.29C2338.5 1099.44 2322.3 1036.92 2297.07 978.47C2270.71 917.39 2234.98 861.92 2190.87 813.62C2119.34 735.29 2029.86 672.48 1924.91 626.93C1845.94 592.65 1759.26 569.22 1671.46 558.2L1671.69 532.15L1673.03 383.76C1673.74 305.03 1650.45 229.18 1605.67 164.42C1560.89 99.6602 1498.17 51.0702 1424.26 23.9202C1386.22 9.95019 1346.45 2.18023 1306.05 0.830228C1266.6 -0.479772 1227.31 4.34019 1189.29 15.1702C1151.27 26.0002 1115.34 42.6102 1082.51 64.5202C1048.89 86.9602 1019.19 114.52 994.22 146.45L82.05 1312.97C24.06 1387.13 -4.71993 1479.71 1.01007 1573.68C6.74007 1667.64 46.5501 1756.05 113.12 1822.61C153.54 1863.03 201 1893.5 254.16 1913.16C297.88 1929.33 343.44 1937.49 389.91 1937.48C397.69 1937.48 405.5 1937.25 413.33 1936.79C467.91 1933.6 520.16 1919.46 568.65 1894.75C619.16 1869.02 662.73 1833.23 698.17 1788.37L1017.1 1381.84C1053.64 1335.26 1090.67 1287.86 1126.48 1242.03C1185.23 1166.84 1245.98 1089.08 1306.06 1013.03C1319.81 995.63 1333.86 977.23 1347.45 959.43C1395.77 896.17 1439.24 841.64 1482.28 800.55L1472.95 1837.17C1472.48 1888.34 1512.27 1930.94 1562.69 1934.6C1562.92 1934.62 1563.18 1934.64 1563.43 1934.66V1934.7C1563.59 1934.7 1563.75 1934.7 1563.91 1934.7C1575.81 1935.56 1611.48 1936.59 1660.82 1929.55V1929.49C1669.48 1928.56 1678.12 1927.52 1686.72 1926.35C1807.21 1909.92 1923.03 1868.86 2021.66 1807.6C2074.72 1774.64 2122.66 1735.96 2164.15 1692.63C2208.36 1646.45 2245.44 1594.78 2274.35 1539.04C2304.11 1481.66 2325.3 1419.99 2337.31 1355.75C2349.17 1292.37 2351.83 1227.95 2345.23 1164.29ZM1484.33 570.99C1459.54 583.18 1435.13 598.18 1411.15 616C1326.34 678.99 1258.6 767.69 1198.83 845.95C1185.09 863.94 1172.11 880.93 1159.32 897.13C1098.93 973.58 1038.02 1051.53 979.12 1126.92C943.36 1172.68 906.39 1220 869.96 1266.44L551.31 1672.6C514.5 1719.12 461.62 1746.65 402.39 1750.12C343.11 1753.59 287.33 1732.37 245.34 1690.38C174.63 1619.67 167.76 1506.94 229.36 1428.16L1141.53 261.65C1178.9 213.86 1235.05 187.55 1293.07 187.55C1315.35 187.55 1337.91 191.43 1359.78 199.47C1436.03 227.48 1486.76 300.87 1486.03 382.09L1484.33 570.99ZM2110.13 1453.88C2030.43 1607.54 1862.8 1715.65 1661.73 1743.06C1661.43 1743.1 1661.12 1743.14 1660.82 1743.18V1740.39L1669.78 744.63C1823.83 767.97 1961.49 836.8 2054.26 938.38C2175.64 1071.29 2198.62 1283.27 2110.13 1453.88Z" fill="white"/>
</svg>
