<svg width="53" height="50" viewBox="0 0 53 50" fill="none" xmlns="http://www.w3.org/2000/svg">
<path d="M5.31087 11.8162C5.57303 11.8274 5.8338 11.7727 6.0692 11.657C6.3046 11.5413 6.50704 11.3684 6.6579 11.1542C6.90251 10.8008 7.03044 10.38 7.02382 9.95062C7.02382 9.742 7.02382 9.54944 7.02382 9.34484C7.02382 9.27262 7.02381 9.0279 6.99165 8.97975C7.31796 9.40187 7.50358 9.91535 7.52242 10.4481C7.52242 11.0218 7.7275 8.28971 7.7275 8.28971C9.17103 10.2595 7.55057 12.0769 7.55057 12.0769C8.24346 11.727 8.78407 11.1362 9.0705 10.416C9.38658 9.60064 9.50107 8.72129 9.40425 7.85242C11.0126 9.34082 9.61736 11.8362 8.3025 12.2655C8.3025 12.2655 7.8441 12.7068 6.46489 12.7309C6.867 12.8713 8.53169 13.4048 10.0838 12.6225C10.116 12.6225 12.239 11.5072 12.4682 9.56147C12.472 9.45171 12.4487 9.34273 12.4003 9.24409C12.3519 9.14544 12.28 9.06019 12.1908 8.9958C12.1484 8.98522 12.104 8.98478 12.0614 8.99454C12.0188 9.0043 11.9791 9.02398 11.9455 9.05196L11.5153 9.32077L11.6962 8.87544C11.9371 8.35674 11.973 7.7665 11.7967 7.22255C11.7477 7.13599 11.6817 7.0602 11.6026 6.99972C11.5236 6.93924 11.4331 6.89532 11.3366 6.87059C11.24 6.84587 11.1395 6.84084 11.041 6.85582C10.9425 6.8708 10.8481 6.90547 10.7633 6.95777C10.7633 6.95777 8.22208 5.26075 9.01422 4.32999C8.68376 4.60949 8.42702 4.96556 8.26649 5.36702C8.10596 5.76849 8.04651 6.20311 8.0934 6.6328C8.11752 6.70101 8.14971 6.8013 8.1859 6.90962C7.84009 6.60873 7.33745 6.10725 7.4219 5.55762C7.4219 5.55762 6.71018 6.14737 7.14445 7.49135C6.94512 7.26553 6.66825 7.1224 6.36839 7.09016C6.36839 7.09016 6.11508 7.55955 6.57749 8.50636C6.43307 8.51303 6.29717 8.5765 6.19952 8.68288C5.83763 9.01586 6.04671 9.23652 6.33622 9.63369C6.48715 9.82314 6.56139 10.0622 6.54426 10.3036C6.52714 10.545 6.41991 10.7712 6.24374 10.9376C6.00922 11.0774 5.73647 11.1398 5.46431 11.1161C5.19215 11.0923 4.93443 10.9835 4.72782 10.8052C4.5099 10.5775 4.33063 10.316 4.19704 10.0309C3.39284 8.5224 4.06436 5.96683 5.11384 4.97991C5.59361 4.56018 6.15544 4.24434 6.76382 4.05236C7.3722 3.86039 8.01388 3.79646 8.6483 3.86461C8.87916 3.87918 9.10885 3.90866 9.3359 3.95287C9.39621 3.95287 9.45653 3.95287 9.51282 3.97293H9.57312C10.1727 4.09567 10.7539 4.29525 11.3022 4.56669L11.5153 4.68304L11.6037 4.73518C12.2959 5.08159 12.9241 5.54285 13.4614 6.09923C13.5218 6.16342 13.6464 6.27574 13.759 6.40412C13.8153 6.46831 13.8515 6.53652 13.8997 6.60071C13.8796 6.47635 13.8555 6.36802 13.8273 6.24767C13.7678 6.06078 13.726 5.8687 13.7027 5.67397C13.6519 5.33759 13.7126 4.99385 13.8756 4.69507C13.2565 4.0808 12.5156 3.60251 11.7002 3.29092C9.65356 2.48854 6.95949 2.23177 5.09374 3.59581C3.96166 4.40945 3.19495 5.63398 2.95859 7.00591C2.81352 7.66981 2.80464 8.35614 2.93248 9.02356C3.06033 9.69098 3.32224 10.3257 3.70247 10.8894C3.89348 11.1447 4.13458 11.3585 4.4111 11.5179C4.68762 11.6772 4.99377 11.7787 5.31087 11.8162Z" fill="white"/>
<path d="M23.5062 41.2786C20.398 39.5294 18.5563 36.2517 18.5563 31.8426C18.5546 31.6829 18.4964 31.5288 18.3919 31.4077C18.2874 31.2866 18.1435 31.2062 17.9854 31.1807H13.8638C13.5985 31.1807 13.0918 31.1807 13.0918 31.6621V39.9466C13.0918 41.074 13.5985 41.419 14.2418 41.756C17.9814 43.8863 21.6525 45.1821 25.7097 45.3667C25.6614 45.3025 25.5891 45.2383 25.5448 45.1661C25.5162 45.1239 25.4906 45.0796 25.4684 45.0337C25.3942 44.8947 25.3109 44.7607 25.2191 44.6325L25.195 44.5844C24.9668 44.2874 24.7976 43.9497 24.6964 43.5894C24.6964 43.5653 24.6683 43.5493 24.6642 43.5252C24.544 42.9402 24.544 42.337 24.6642 41.752C24.2983 41.6276 23.86 41.4471 23.5062 41.2786Z" fill="white"/>
<path d="M50.4913 34.4545C50.3374 34.4942 50.1878 34.5493 50.045 34.619C50.045 34.619 50.045 34.5789 50.0731 34.5628C50.1013 34.5468 50.045 34.611 50.0249 34.631C49.8377 34.7201 49.6599 34.8276 49.4941 34.952C49.3855 35.0362 49.285 35.1245 49.1845 35.2168C48.7109 35.6809 48.3049 36.2089 47.9782 36.7854C47.9057 36.906 47.8399 37.0306 47.7811 37.1585C47.7128 37.2869 47.6525 37.3912 47.6203 37.4714C47.5882 37.5517 47.556 37.6159 47.556 37.6159C47.4194 37.9741 47.3079 38.3414 47.2222 38.7151C46.6713 37.1104 47.6243 35.9469 48.328 35.3411C46.6553 35.2769 44.8458 37.0542 44.8458 37.0542V37.0341C44.1095 37.6932 43.2753 38.2345 42.3729 38.6389C41.9105 38.9638 41.2792 39.4814 41.2832 40.1433C41.3033 40.3479 41.3556 40.5445 41.5767 40.4282C41.7165 40.33 41.8507 40.2242 41.9788 40.1112C41.8212 40.353 41.7208 40.6274 41.6853 40.9136C41.6037 41.312 41.6147 41.7237 41.7175 42.1172C41.8415 41.9957 41.9521 41.8612 42.0472 41.716C42.1745 41.5028 42.2822 41.2786 42.3689 41.046C42.3126 41.2707 42.3045 41.4873 42.2442 41.6999C42.1464 41.9792 42.0895 42.271 42.0753 42.5665C42.0692 42.9726 42.1193 43.3776 42.2241 43.7701C42.5498 44.2956 42.8353 43.2606 42.972 43.1041C42.9814 43.3872 42.935 43.6693 42.8353 43.9346C42.7856 44.2635 42.8103 44.5993 42.9077 44.9175C43.0447 45.4257 43.0208 45.9638 42.8393 46.458C43.3007 46.4123 43.7261 46.1893 44.0255 45.8362C44.5789 45.2956 45.0166 44.6487 45.3122 43.9346L45.4771 43.4692L45.5696 43.9667C45.5844 44.2137 45.5418 44.4609 45.4449 44.6888C45.7222 44.3856 45.9294 44.0254 46.0521 43.6337C46.1124 43.5013 46.1567 43.3929 46.1928 43.2967L46.3979 42.8634L46.4502 43.3288C46.4886 43.615 46.4886 43.9051 46.4502 44.1913C46.5754 44.1402 46.6849 44.0572 46.7678 43.9506C47.0846 43.4991 47.315 42.9932 47.4474 42.4582C47.5037 42.2215 47.5318 41.9607 47.5761 41.6959C47.6088 41.555 47.6276 41.4112 47.6324 41.2666C47.6324 41.1623 47.7128 40.9377 47.6806 40.8655C47.7162 41.1158 47.7966 41.3576 47.9179 41.5796C48.2074 41.9808 48.4808 40.9497 48.5089 40.7772C48.5525 40.2534 48.5173 39.726 48.4044 39.2126C48.256 38.6611 48.2395 38.0826 48.3561 37.5236C48.4898 37.0205 48.8142 36.5889 49.2609 36.32C49.0182 36.5694 48.8515 36.8824 48.7803 37.2226C48.7091 37.5629 48.7363 37.9163 48.8588 38.2417C48.9007 38.3774 48.9804 38.4985 49.0886 38.5909C49.1968 38.6832 49.3291 38.743 49.47 38.7632C49.7434 38.7632 50.0088 38.5185 50.2058 38.0772C50.3943 37.5464 50.5132 36.9935 50.5597 36.4323C50.596 36.005 50.6659 35.5811 50.7687 35.1646C50.8231 34.9809 50.8903 34.8013 50.9698 34.627C51.01 34.5267 51.0382 34.4184 51.0864 34.3261C50.8953 34.3083 50.7027 34.3401 50.5275 34.4184L50.4913 34.4545Z" fill="white"/>
<path d="M25.5489 7.62373C26.3701 7.46581 27.2022 7.37059 28.0379 7.33889C28.6569 7.35621 29.2738 7.41923 29.8835 7.52745C33.9045 8.6588 37.1213 11.8121 37.1213 16.6585C37.1225 16.8144 37.1795 16.9647 37.282 17.0824C37.3844 17.2001 37.5257 17.2774 37.6803 17.3004H41.7736C41.7736 17.3004 42.3929 17.3004 42.3929 16.8992V8.18139C42.3929 7.59164 42.2722 7.41511 41.9506 7.29475C40.5553 6.58465 33.7718 4.52656 29.0834 4.52656C27.1464 4.46865 25.2088 4.62201 23.3052 4.98392C23.1162 5.02805 22.9272 5.06015 22.7382 5.10829C22.4568 5.1805 22.1954 5.26073 21.934 5.34899C21.6727 5.43725 21.3228 5.55361 21.0253 5.67397C21.0135 5.68628 21.0051 5.70151 21.0012 5.71809C20.8008 6.07187 20.6454 6.44923 20.5387 6.84141C20.4744 7.06283 20.4233 7.28791 20.3859 7.51541C20.2923 8.03847 20.2452 8.56876 20.2452 9.1001C20.2452 9.44512 20.2733 9.79415 20.2854 10.1392C20.3859 12.9475 20.8162 15.6395 20.8162 17.9664C20.8102 18.4404 20.7618 18.913 20.6714 19.3785C20.5582 19.9806 20.383 20.5695 20.1487 21.1357C20.0442 21.3764 19.9436 21.6131 19.823 21.8298C19.7495 21.9675 19.669 22.1014 19.5817 22.231C19.4918 22.3802 19.3925 22.5236 19.2842 22.6602C23.9968 25.7052 30.6315 27.6229 34.0976 30.6358L34.4233 30.4553C34.6565 30.3309 34.8776 30.2146 35.1189 30.1063C35.3601 29.9979 35.521 29.9298 35.6778 29.8455L35.8507 29.7813C36.293 29.6088 36.8359 29.4724 37.0892 29.0672C37.1993 28.7745 37.2683 28.4681 37.2942 28.1565C37.384 27.8062 37.5278 27.4719 37.7205 27.1656C37.7808 27.0693 37.8331 26.969 37.9095 26.8647C38.5162 26.0527 39.3338 25.4215 40.2738 25.0393C33.5989 20.225 21.544 18.9773 21.544 12.9676C21.548 10.1432 23.4017 8.46622 25.5489 7.62373Z" fill="white"/>
<path d="M40.8167 5.1686C44.8559 7.78986 47.8927 11.6918 49.4377 16.2454C49.8925 16.3212 50.3404 16.4339 50.7767 16.5824C50.0047 13.8417 48.6947 11.2814 46.9228 9.05001C45.1508 6.81862 42.9523 4.96063 40.4548 3.5839C36.2238 1.19009 31.434 -0.0458226 26.5703 0.00129873C26.8383 0.356181 27.0474 0.751715 27.1896 1.17277C30.2938 1.25702 35.7864 1.89491 40.8167 5.1686Z" fill="white"/>
<path d="M27.036 48.6973C22.641 48.6923 18.3309 47.4896 14.5709 45.219C14.3048 45.2617 14.0362 45.2872 13.7667 45.2952C13.2436 45.2905 12.7238 45.2122 12.2227 45.0625C13.429 46.1016 16.0426 47.947 20.4456 49.1185C23.8016 50.0493 27.3188 50.2504 30.7595 49.7083C30.5135 49.3212 30.2919 48.9192 30.096 48.5047C29.0823 48.6451 28.0594 48.7094 27.036 48.6973Z" fill="white"/>
<path d="M9.33974 30.6039C10.4013 27.5589 12.9184 25.8418 14.0322 25.228L14.1247 25.1999C14.2473 25.1371 14.3656 25.0661 14.4786 24.9873L14.5952 24.9311H14.5751C15.1871 24.4851 15.6508 23.8659 15.906 23.1539C17.2209 19.9444 15.4074 17.2524 15.3511 17.1361C15.7393 17.2629 16.0775 17.5089 16.3172 17.8388C16.5569 18.1688 16.686 18.5659 16.6861 18.9735C17.1315 18.0594 17.3165 17.0407 17.2209 16.0288C17.8522 17.4891 17.3616 19.6114 17.2973 19.8882C17.6157 19.0957 17.8528 18.2731 18.005 17.4329C18.2187 15.8369 18.2497 14.2218 18.0975 12.6187V12.5425C17.0681 4.59896 20.2568 2.11159 22.0823 1.73447C22.634 1.54837 23.2304 1.53995 23.7872 1.7104C23.2685 0.643246 21.7325 0.655279 21.7325 0.655279C19.3199 0.655279 16.9475 2.52882 16.7464 4.87577C16.7464 4.87577 16.7464 4.90385 16.7464 4.91589C16.7464 5.00816 16.7142 5.09642 16.7142 5.18869C16.792 6.09233 16.9345 6.98927 17.1405 7.87264C17.1405 7.87264 15.2385 5.3933 14.2092 5.3933C14.2267 5.88848 14.2791 6.38182 14.366 6.86967C14.413 7.05599 14.4493 7.24486 14.4745 7.43535C17.5064 11.6318 16.9314 14.9416 16.9314 14.9416C16.8831 14.7971 16.8349 14.6647 16.7866 14.5404C16.6539 14.2074 16.5132 13.8584 16.3604 13.5214C16.1716 13.1712 15.8869 12.8818 15.5394 12.6872C15.1919 12.4925 14.7961 12.4006 14.3981 12.4221C13.9892 12.4469 13.6066 12.6321 13.3339 12.9372C13.0613 13.2424 12.9206 13.6427 12.9425 14.0509C12.9425 15.1542 13.6704 16.1732 14.0845 16.6306L14.2695 16.8432C14.366 16.9475 14.4625 17.0518 14.555 17.1642C14.5756 17.1824 14.5944 17.2026 14.6113 17.2243L14.6595 17.2725C15.6688 18.476 16.1594 20.2051 15.6406 21.6655C15.4314 22.2991 15.0398 22.8572 14.5148 23.2702C14.0959 23.6523 13.5723 23.901 13.0109 23.9843C13.0793 23.9402 13.1235 23.88 13.1878 23.8359C13.9331 23.1277 14.3777 22.1614 14.4303 21.1359C14.4364 21.017 14.4364 20.8978 14.4303 20.7788C14.4303 20.6264 14.4303 20.4699 14.4303 20.3014C14.4303 20.1329 14.4062 20.0728 14.3941 19.9604C14.3821 19.8481 14.37 19.6515 14.3378 19.483C14.3378 19.483 14.3378 19.483 14.3378 19.463C14.2914 19.2483 14.224 19.0387 14.1368 18.8371C14.0421 18.6087 13.9148 18.3952 13.7588 18.2032C13.7189 18.1525 13.6759 18.1043 13.6301 18.0588C13.5934 18.0217 13.5545 17.9869 13.5135 17.9545L13.3688 17.8502C13.3028 18.1097 13.2154 18.3633 13.1074 18.6084C12.987 18.8825 12.8528 19.1503 12.7053 19.4108C12.2243 20.2357 11.6332 20.9914 10.9481 21.6574C10.8315 21.7497 10.7109 21.842 10.6023 21.9343L10.4375 22.0506L10.2686 22.171C10.7411 21.5786 11.1457 20.9354 11.4749 20.2533C11.5352 20.1329 11.5955 20.0126 11.6518 19.8882C11.959 19.2096 12.1623 18.4888 12.255 17.7499C12.255 17.7218 12.255 17.6977 12.255 17.6696C12.255 17.5051 12.2911 17.3447 12.2911 17.1802C12.2894 17.0861 12.2814 16.9923 12.267 16.8994C12.2692 16.8593 12.2692 16.8191 12.267 16.779C12.2436 16.4788 12.1842 16.1825 12.0901 15.8964C12.0884 15.8885 12.0884 15.8802 12.0901 15.8723C12.0901 15.8723 12.0901 15.8482 12.0901 15.8402C11.9646 15.5148 11.7698 15.2205 11.5191 14.9777C11.3295 14.7873 11.1021 14.6383 10.8516 14.5404C10.997 14.7783 11.0933 15.0428 11.1347 15.3184C11.1761 15.594 11.1619 15.8751 11.0929 16.1451C11.0929 16.2575 11.0487 16.3658 11.0205 16.4741C10.542 18.3998 8.76474 20.6184 8.76474 20.6184L8.72049 20.7147C8.50336 20.9554 8.25809 21.2081 8.00477 21.4809C7.96054 21.5331 7.90826 21.5892 7.85197 21.6454C7.35336 22.187 6.81455 22.7768 6.29182 23.4307L6.24759 23.4829C6.17924 23.5631 6.1149 23.6634 6.04654 23.7516C5.75983 24.1111 5.49142 24.4846 5.24234 24.871C5.10161 25.0715 4.97294 25.2721 4.84024 25.5008L4.71157 25.7215C4.33435 26.3315 4.01401 26.9748 3.75457 27.6432C3.73035 27.6909 3.71016 27.7405 3.69424 27.7916C3.69424 27.8237 3.69426 27.8598 3.66612 27.8879C3.63395 28.0002 3.59776 28.1206 3.56559 28.2409C3.53342 28.3613 3.48918 28.5338 3.45299 28.7023C3.217 29.8741 3.18165 31.0773 3.34844 32.2608C3.3525 32.3401 3.36055 32.4191 3.37257 32.4975C3.37257 32.3852 3.34844 32.1926 3.34442 31.9599C3.35568 31.1115 3.5915 30.2811 4.02799 29.5528C3.51733 31.647 3.73849 32.9789 4.16069 33.9659C4.16069 33.7011 4.16069 33.4844 4.16069 33.1635V33.1314C4.1705 32.892 4.19603 32.6534 4.23709 32.4173C4.33527 31.2712 4.6942 30.1625 5.28657 29.1757C5.31172 29.137 5.33454 29.0968 5.35492 29.0553C5.37139 29.031 5.38619 29.0055 5.39917 28.9791L5.43132 28.923C5.43786 28.9087 5.44595 28.8953 5.45544 28.8828C5.47361 28.8436 5.49515 28.806 5.51979 28.7705C5.92262 28.1896 6.39526 27.6601 6.92714 27.1938L6.95127 27.1697C7.01962 27.1056 7.09601 27.0293 7.16034 26.9732C7.5797 26.6208 8.03372 26.3116 8.51544 26.0504C7.93397 26.5901 7.41961 27.1976 6.98344 27.8598C6.76032 28.1966 6.55496 28.5447 6.36822 28.9029C6.27573 29.0834 6.18726 29.2559 6.10684 29.4325C5.89038 29.9095 5.70503 30.4 5.55194 30.9008C5.2733 31.7551 5.11235 32.6431 5.07347 33.5406C5.07347 33.5647 5.07347 33.5968 5.07347 33.6168C5.07347 33.6369 5.07347 33.661 5.07347 33.6851C5.10736 35.47 5.62116 37.213 6.56122 38.732C6.80821 39.0851 7.07679 39.4228 7.36542 39.743C7.46192 39.9155 7.56245 40.08 7.67102 40.2404L7.80774 40.3889L7.69917 40.2806C8.49715 41.451 9.68316 42.3034 11.0487 42.6877C11.1394 42.7216 11.2339 42.7445 11.3301 42.7559C11.1211 42.4149 10.928 42.0939 10.7551 41.773C9.30756 39.2054 8.83309 37.1714 8.83309 33.348C8.8496 32.8975 8.90475 32.4492 8.99794 32.0081C9.06931 31.5307 9.18372 31.0608 9.33974 30.6039ZM20.8197 1.50579C20.8389 1.50027 20.8577 1.49357 20.876 1.48574C20.8466 1.49802 20.8184 1.51278 20.7915 1.52987C20.7988 1.51966 20.8085 1.51139 20.8197 1.50579Z" fill="white"/>
<path d="M40.9568 43.7306H41.0211L40.9447 43.6985C40.755 43.2588 40.4691 42.8671 40.108 42.552C39.7469 42.2368 39.3198 42.0062 38.8578 41.8771C38.7446 41.8337 38.6292 41.7962 38.512 41.7648C38.4195 41.7407 38.3311 41.7126 38.2506 41.7006L38.0737 41.6525C37.7287 41.6051 37.3805 41.585 37.0323 41.5923H37.0082H36.9639C36.0029 41.6244 35.062 41.9052 35.0137 42.5832C35.0149 42.737 35.0697 42.8856 35.1688 43.0035C35.2679 43.1214 35.405 43.2012 35.5566 43.2291L35.2108 43.4297C34.7983 43.6818 34.4945 44.0779 34.3583 44.541C34.2176 44.9703 34.7001 45.5279 35.0137 45.2351C34.5674 47.0685 33.3008 46.6392 33.3008 46.6392C35.8018 48.5248 36.795 46.238 36.795 46.238C36.6386 46.5578 36.588 46.9188 36.6503 47.2691C36.7588 47.7064 37.169 47.6703 37.4143 47.3975C37.5481 47.2376 37.6486 47.0527 37.7101 46.8537C37.7715 46.6546 37.7926 46.4453 37.7721 46.238L37.8566 46.6392C37.8968 46.8478 37.9973 47.245 38.2868 47.0685C38.5763 46.892 38.5683 46.3945 38.5844 46.1257C38.5825 46.1812 38.5966 46.236 38.6251 46.2837C38.6537 46.3314 38.6954 46.3698 38.7452 46.3945C38.8091 46.4226 38.8792 46.4336 38.9486 46.4265C39.018 46.4194 39.0844 46.3944 39.1412 46.3539C39.198 46.3134 39.2433 46.2589 39.2726 46.1957C39.3018 46.1324 39.3141 46.0627 39.3082 45.9933C39.2274 45.7131 39.2095 45.4186 39.2559 45.1307C39.3966 44.7296 39.9837 44.4046 40.3456 44.7296C40.6348 45.064 40.7933 45.4914 40.7919 45.9331C40.783 46.0479 40.7655 46.1619 40.7396 46.2741L40.7919 46.1738C40.9137 46.0584 41.0144 45.9226 41.0895 45.7727C41.1743 45.5862 41.2273 45.3868 41.2463 45.1829C41.2602 44.9324 41.2385 44.6812 41.182 44.4367C41.127 44.1954 41.0517 43.9592 40.9568 43.7306Z" fill="white"/>
<path d="M52.3205 21.6653C52.3226 21.6453 52.3226 21.6251 52.3205 21.6051C52.3205 21.573 52.2964 21.5329 52.2883 21.5008C52.2803 21.4687 52.2521 21.3965 52.232 21.3363C52.2119 21.2762 52.1999 21.2521 52.1878 21.212C52.1114 20.9833 52.035 20.7707 51.9586 20.5901C51.8752 20.3186 51.7385 20.0663 51.5565 19.8479C51.5062 19.7723 51.4511 19.7 51.3916 19.6313C51.0177 19.21 50.7483 19.2903 50.7483 19.2903C51.0981 20.2652 50.0768 21.0916 50.0768 21.0916L49.8838 21.2441C49.6601 21.3845 49.4513 21.5471 49.2605 21.7295C48.8102 22.2149 49.4374 22.5078 49.8717 22.2149C49.4933 22.548 49.1323 22.9002 48.7901 23.2701C48.6574 23.4265 48.4764 23.6712 48.581 23.8919C48.782 24.253 49.2887 24.1206 49.5902 23.9762C49.7833 23.8879 49.9621 23.7716 50.121 23.6311C50.2095 23.5629 50.3824 23.3182 50.5231 23.3864C50.6638 23.4546 50.5834 23.7876 50.5231 23.912C50.2091 24.406 49.7818 24.8186 49.2766 25.1155C48.8061 25.4004 48.207 25.6732 47.9054 26.1586C47.7446 26.4394 47.6843 27.2579 48.1628 26.7885C47.4953 27.4304 47.8692 27.5467 47.7366 27.8596C47.6039 28.1726 47.4189 28.5858 47.5797 28.8787C47.5797 28.9348 47.6602 29.003 47.813 29.003C47.9856 29.0142 48.1584 28.9835 48.3167 28.9136C48.4749 28.8438 48.6138 28.7368 48.7217 28.6018C48.7715 28.696 48.799 28.8003 48.8021 28.9067C48.7955 28.9052 48.7886 28.9052 48.782 28.9067C48.7832 29.0582 48.7352 29.206 48.6453 29.328C48.6112 29.3907 48.5708 29.4499 48.5247 29.5045L48.4644 29.5807C48.4071 29.6404 48.3534 29.7034 48.3035 29.7693C48.0613 30.0429 47.7261 30.2173 47.3626 30.2587C47.1601 30.2837 46.9547 30.2478 46.7727 30.1556C46.5908 30.0634 46.4406 29.9191 46.3413 29.7412C46.2419 29.5271 46.1729 29.3003 46.1362 29.0672C46.0317 28.5136 45.9351 28.1044 45.6456 28.1284C45.5963 28.1243 45.5468 28.1328 45.5018 28.1532C45.4567 28.1735 45.4176 28.2051 45.3883 28.2448C45.2487 28.5858 45.2206 28.9621 45.3079 29.32C45.1712 29.1796 45.1511 28.9188 45.0787 28.7503C45.0063 28.5818 44.8977 28.4093 44.8053 28.2448C44.6878 28.0488 44.5532 27.8636 44.4032 27.6912C44.3629 27.643 43.8483 27.2137 43.8483 27.2298C43.8483 27.2458 43.8483 27.2779 43.8201 27.31C43.7954 27.4015 43.7859 27.4963 43.792 27.5909V27.8717L43.5748 27.6912C42.5334 26.8647 41.6045 27.0051 40.6877 28.1284C40.971 28.0617 41.269 28.1051 41.5215 28.2496C41.7739 28.3941 41.9617 28.6291 42.0468 28.9067C42.1956 29.3962 42.2358 29.9859 42.7465 30.2427C42.6379 30.343 42.0468 30.0782 42.0187 29.9458C42.0255 30.141 42.0776 30.332 42.1708 30.5037C42.264 30.6754 42.3959 30.8233 42.556 30.9356C42.7161 31.048 42.9002 31.1217 43.0937 31.1512C43.2872 31.1806 43.4849 31.1649 43.6713 31.1053C43.5492 31.2838 43.3717 31.4173 43.1662 31.4854C42.9606 31.5536 42.7383 31.5525 42.5334 31.4824C42.1283 31.3245 41.7116 31.1984 41.2869 31.1053C39.393 30.7683 37.487 31.6469 36.148 32.8544C35.372 33.5324 34.7688 34.5835 34.1375 35.402C33.5229 36.2499 32.9603 37.1341 32.4527 38.0498C32.1471 38.5834 31.8415 39.121 31.5118 39.6546C31.1857 40.1651 30.82 40.6493 30.4181 41.1029C28.6368 43.4458 27.4868 43.2693 27.3541 43.51C27.1732 43.8149 27.8085 44.3565 28.7213 44.3565C28.9419 44.3324 29.1561 44.2671 29.3525 44.1639C29.5929 44.0282 29.8026 43.8445 29.9686 43.6243C30.1347 43.4041 30.2534 43.1521 30.3176 42.8841L30.3658 43.3656V43.506C30.406 43.9553 30.4905 44.7497 30.7961 45.0465C30.8831 45.1121 30.9886 45.1485 31.0977 45.1508C31.7893 45.1147 32.131 44.2522 32.4005 43.5461C32.4889 43.3174 32.5653 43.1449 32.6457 42.9563L32.7784 42.7156L32.883 42.9964C32.9312 43.0967 32.9835 43.169 33.0478 43.185C33.1314 43.1788 33.2121 43.1516 33.2824 43.106C33.3527 43.0604 33.4103 42.9979 33.4499 42.9242C33.6831 42.6073 33.5102 42.1499 33.3977 41.8009C32.8548 40.0317 32.9956 38.0378 34.4592 36.7179C34.415 36.8503 34.3828 36.9867 34.3466 37.1191C34.1536 37.9896 33.9968 39.0087 34.415 39.9033C34.4893 40.0577 34.6025 40.1902 34.7434 40.2879C34.8843 40.3856 35.0483 40.4452 35.2192 40.4609C35.2935 40.4753 35.37 40.4753 35.4444 40.4609C35.5208 40.4609 35.5529 40.3847 35.6173 40.3566C35.7665 40.2904 35.9027 40.198 36.0194 40.0838C36.0475 40.0517 36.0676 40.0076 36.0958 39.9715C36.2239 39.8056 36.3144 39.614 36.3612 39.4098C36.3975 39.3429 36.4284 39.2731 36.4536 39.2012C36.5623 38.8068 36.6389 38.4043 36.6828 37.9977C36.7592 37.2555 36.8155 36.4691 36.916 35.7189C36.9623 35.2988 37.0471 34.8839 37.1694 34.4792C37.2592 34.1705 37.405 33.8809 37.5996 33.6247C37.8069 33.3521 38.0519 33.1104 38.3274 32.9066C38.7038 32.6183 39.1394 32.4166 39.6031 32.316C40.0668 32.2154 40.5471 32.2185 41.0094 32.3249C41.0376 32.3249 41.0617 32.3449 41.0898 32.3489C41.1982 32.3728 41.3035 32.4091 41.4035 32.4573C41.4638 32.4813 41.5241 32.4853 41.5885 32.5174C40.6744 32.9148 39.8405 33.4749 39.1276 34.1703C39.1276 34.1703 39.1276 34.1944 39.1035 34.2024C38.8634 34.4507 38.6724 34.742 38.5405 35.061C38.4963 35.1733 38.444 35.2856 38.4038 35.402C38.3636 35.5183 38.2993 35.7149 38.2591 35.8754C38.2188 36.0358 38.2108 36.1 38.1907 36.2084C38.1143 36.5654 38.054 36.9225 37.9977 37.2474C37.9546 37.51 37.8914 37.7688 37.8087 38.0217C37.7548 38.2062 37.66 38.3763 37.5313 38.5192C37.9354 38.5111 38.3394 38.542 38.7376 38.6115C38.9476 38.6463 39.16 38.6651 39.3729 38.6676C39.7928 38.6925 40.214 38.6791 40.6315 38.6275C41.0833 38.5333 41.508 38.3386 41.8739 38.0578C42.4147 37.6219 42.8782 37.0984 43.2451 36.5092C43.3858 36.2966 43.5306 36.084 43.6472 35.8674C43.7196 35.7631 43.7879 35.6547 43.8563 35.5504C44.0975 35.1733 44.3428 34.8002 44.6122 34.4471C44.6368 34.4107 44.6636 34.3758 44.6927 34.3428C44.8752 34.1023 45.0754 33.8756 45.2918 33.6648C45.4274 33.5216 45.5725 33.3875 45.7261 33.2636C46.0926 32.9666 46.5093 32.737 46.9565 32.5856C46.9866 32.5753 47.0176 32.5672 47.049 32.5616L47.3144 32.4853C47.6467 32.3797 47.9954 32.3349 48.3437 32.353H48.404C48.6117 32.3632 48.8178 32.3941 49.0193 32.4452L48.8423 32.5856L48.6373 32.7421L48.3759 32.9307C48.174 33.1346 47.996 33.3607 47.8451 33.6047C47.7944 33.6922 47.77 33.7926 47.775 33.8936C47.78 33.9947 47.8141 34.0922 47.8733 34.1743L48.2191 34.4471C48.3276 34.4881 48.4412 34.5138 48.5568 34.5234C48.9358 34.4818 49.301 34.3579 49.6268 34.1604C49.9527 33.9628 50.2311 33.6964 50.4427 33.38C50.3471 33.5732 50.2691 33.7746 50.2095 33.9818C50.5794 34.1583 51.078 33.3118 51.1826 33.059C51.1382 33.25 51.1126 33.4448 51.1062 33.6407C51.271 34.3147 51.8219 33.3118 51.8219 33.3118C52.0103 32.9519 52.1457 32.5668 52.224 32.1684C52.2269 32.1579 52.2269 32.1468 52.224 32.1363C52.224 32.0882 52.224 32.0561 52.2441 32.0159C52.3245 31.6469 52.3567 31.3259 52.425 30.9689C52.6968 29.5637 52.8528 28.1388 52.8915 26.7082C52.9808 25.0074 52.7879 23.3034 52.3205 21.6653Z" fill="white"/>
<path d="M3.52982 26.2104C4.01234 24.6056 4.26969 22.0019 2.97894 18.656C2.83821 18.3712 2.72562 18.0944 2.55272 17.8015C2.55272 17.8015 2.66128 17.9459 2.79799 18.1465C2.77387 18.0863 2.76584 18.0302 2.73367 17.966C3.72895 18.6269 4.5342 19.5354 5.06987 20.6018C5.32687 21.1446 5.47701 21.7316 5.51217 22.3309C5.51217 22.4392 5.54837 22.5435 5.54837 22.6559L5.72929 22.2547L5.96252 21.7171L6.11129 21.3681V21.3319C6.16357 21.2316 6.18367 21.1554 6.23192 21.0632C6.72918 20.0542 7.054 18.9694 7.19294 17.8537C7.3157 17.034 7.2243 16.1966 6.92757 15.4225C6.86725 15.3101 6.82301 15.1857 6.75867 15.0895L6.73454 15.0534C6.55758 14.7925 6.35266 14.5517 6.12337 14.3352C6.05703 14.9804 6.10466 15.6322 6.26409 16.2609C6.09923 15.8598 5.89416 15.3141 5.83384 15.1456C5.73332 14.8127 5.66898 14.6241 5.55639 14.2951C5.44381 13.9661 4.98945 13.1678 4.51899 13.5289C4.11689 13.8257 4.35815 14.5479 4.51899 14.9129C4.07266 14.7565 4.02842 14.239 3.98017 13.8458C3.96119 13.5745 3.8785 13.3115 3.7388 13.0781C3.59909 12.8446 3.40629 12.6472 3.17597 12.5018C2.37177 12.0565 2.2793 11.6032 2.15867 10.9492C1.76095 11.4653 1.48596 12.0648 1.35447 12.7024C1.11321 13.6171 1.75657 15.9681 1.75657 15.9681L1.71634 15.9159C1.58422 15.6564 1.4309 15.4082 1.25794 15.1737C1.11832 15.0357 1.00764 14.8713 0.932392 14.6902C0.857139 14.509 0.81883 14.3147 0.819669 14.1186C0.670345 14.4103 0.598583 14.7355 0.611256 15.0628C0.623929 15.3901 0.720609 15.7087 0.892044 15.9881C0.971026 16.1881 1.00002 16.4043 0.976494 16.618C0.745702 16.4825 0.549181 16.2959 0.402083 16.0726C0.254984 15.8493 0.161218 15.5953 0.128044 15.3302C0.128044 15.3302 -0.539427 17.0794 1.17352 19.7031C0.979487 19.4982 0.749082 19.3309 0.493969 19.2097C-0.0166981 19.0131 0.337133 20.0883 0.401469 20.2527C0.680742 20.8695 1.09257 21.4173 1.60777 21.8575C2.12181 22.309 2.52377 22.8735 2.78192 23.5064C2.89274 23.7919 2.94486 24.0967 2.93519 24.4027C2.92551 24.7087 2.85425 25.0097 2.72562 25.2877C2.79413 24.8766 2.74391 24.4546 2.58084 24.0709C2.41778 23.6873 2.14863 23.3579 1.80482 23.1212C1.66879 23.0317 1.50939 22.984 1.34642 22.984C1.18345 22.984 1.02405 23.0317 0.888019 23.1212C0.710951 23.2604 0.580924 23.4504 0.515492 23.6657C0.450061 23.8809 0.452384 24.1109 0.522119 24.3248C0.683721 25.055 0.985471 25.7471 1.41074 26.3628V26.3829L1.47912 26.4671C1.77824 26.924 2.10874 27.3597 2.46827 27.771C2.56973 27.8465 2.66643 27.9283 2.75779 28.0157C3.06545 27.5371 3.30624 27.0188 3.47352 26.4752C3.48156 26.415 3.50167 26.3027 3.52982 26.2104Z" fill="white"/>
<path d="M11.5882 4.77545C11.5882 4.77545 13.7515 5.57782 15.9671 9.99089L16.8035 7.3912C16.8035 7.3912 13.3534 3.8126 11.6887 3.33117C10.024 2.84975 11.5882 4.77545 11.5882 4.77545Z" fill="white"/>
<path d="M7.83338 9.7378C7.83338 10.139 7.55987 12.1449 5.52459 11.8079C3.48931 11.4709 4.97354 11.3024 4.97354 11.3024L5.90269 11.3746L6.46177 11.154L6.79562 10.3516L6.7192 9.27643L6.94445 8.47406H7.24612L7.71672 8.30957C7.71672 8.30957 7.83338 9.32457 7.83338 9.7378Z" fill="white"/>
</svg>
